{
    "asset" : {
        "generator" : "Khronos glTF Blender I/O v3.2.43",
        "version" : "2.0"
    },
    "scene" : 0,
    "scenes" : [
        {
            "name" : "Scene",
            "nodes" : [
                0
            ]
        }
    ],
    "nodes" : [
        {
            "mesh" : 0,
            "name" : "SM_Bike_01.mo"
        }
    ],
    "meshes" : [
        {
            "name" : "SM_Bike_01.md.001",
            "primitives" : [
                {
                    "attributes" : {
                        "POSITION" : 0,
                        "NORMAL" : 1,
                        "TEXCOORD_0" : 2,
                        "TEXCOORD_1" : 3,
                        "COLOR_0" : 4
                    },
                    "indices" : 5
                },
                {
                    "attributes" : {
                        "POSITION" : 6,
                        "NORMAL" : 7,
                        "TEXCOORD_0" : 8,
                        "TEXCOORD_1" : 9,
                        "COLOR_0" : 10
                    },
                    "indices" : 11
                },
                {
                    "attributes" : {
                        "POSITION" : 12,
                        "NORMAL" : 13,
                        "TEXCOORD_0" : 14,
                        "TEXCOORD_1" : 15,
                        "COLOR_0" : 16
                    },
                    "indices" : 17
                },
                {
                    "attributes" : {
                        "POSITION" : 18,
                        "NORMAL" : 19,
                        "TEXCOORD_0" : 20,
                        "TEXCOORD_1" : 21,
                        "COLOR_0" : 22
                    },
                    "indices" : 23
                },
                {
                    "attributes" : {
                        "POSITION" : 24,
                        "NORMAL" : 25,
                        "TEXCOORD_0" : 26,
                        "TEXCOORD_1" : 27,
                        "COLOR_0" : 28
                    },
                    "indices" : 29
                },
                {
                    "attributes" : {
                        "POSITION" : 30,
                        "NORMAL" : 31,
                        "TEXCOORD_0" : 32,
                        "TEXCOORD_1" : 33,
                        "COLOR_0" : 34
                    },
                    "indices" : 35
                },
                {
                    "attributes" : {
                        "POSITION" : 36,
                        "NORMAL" : 37,
                        "TEXCOORD_0" : 38,
                        "TEXCOORD_1" : 39,
                        "COLOR_0" : 40
                    },
                    "indices" : 41
                }
            ]
        }
    ],
    "accessors" : [
        {
            "bufferView" : 0,
            "componentType" : 5126,
            "count" : 11354,
            "max" : [
                0.6343310475349426,
                1.2947496175765991,
                1.0557284355163574
            ],
            "min" : [
                -0.34636542201042175,
                0.006726949941366911,
                -1.004690170288086
            ],
            "type" : "VEC3"
        },
        {
            "bufferView" : 1,
            "componentType" : 5126,
            "count" : 11354,
            "type" : "VEC3"
        },
        {
            "bufferView" : 2,
            "componentType" : 5126,
            "count" : 11354,
            "type" : "VEC2"
        },
        {
            "bufferView" : 3,
            "componentType" : 5126,
            "count" : 11354,
            "type" : "VEC2"
        },
        {
            "bufferView" : 4,
            "componentType" : 5123,
            "count" : 11354,
            "normalized" : true,
            "type" : "VEC4"
        },
        {
            "bufferView" : 5,
            "componentType" : 5123,
            "count" : 11364,
            "type" : "SCALAR"
        },
        {
            "bufferView" : 6,
            "componentType" : 5126,
            "count" : 19475,
            "max" : [
                0.7034435272216797,
                1.2077827453613281,
                1.233649730682373
            ],
            "min" : [
                -0.301067054271698,
                0.006134929601103067,
                -1.0451947450637817
            ],
            "type" : "VEC3"
        },
        {
            "bufferView" : 7,
            "componentType" : 5126,
            "count" : 19475,
            "type" : "VEC3"
        },
        {
            "bufferView" : 8,
            "componentType" : 5126,
            "count" : 19475,
            "type" : "VEC2"
        },
        {
            "bufferView" : 9,
            "componentType" : 5126,
            "count" : 19475,
            "type" : "VEC2"
        },
        {
            "bufferView" : 10,
            "componentType" : 5123,
            "count" : 19475,
            "normalized" : true,
            "type" : "VEC4"
        },
        {
            "bufferView" : 11,
            "componentType" : 5123,
            "count" : 19578,
            "type" : "SCALAR"
        },
        {
            "bufferView" : 12,
            "componentType" : 5126,
            "count" : 3638,
            "max" : [
                0.25968053936958313,
                0.7788240313529968,
                0.35615044832229614
            ],
            "min" : [
                -0.10907267779111862,
                0.24892856180667877,
                -0.20104250311851501
            ],
            "type" : "VEC3"
        },
        {
            "bufferView" : 13,
            "componentType" : 5126,
            "count" : 3638,
            "type" : "VEC3"
        },
        {
            "bufferView" : 14,
            "componentType" : 5126,
            "count" : 3638,
            "type" : "VEC2"
        },
        {
            "bufferView" : 15,
            "componentType" : 5126,
            "count" : 3638,
            "type" : "VEC2"
        },
        {
            "bufferView" : 16,
            "componentType" : 5123,
            "count" : 3638,
            "normalized" : true,
            "type" : "VEC4"
        },
        {
            "bufferView" : 17,
            "componentType" : 5123,
            "count" : 3648,
            "type" : "SCALAR"
        },
        {
            "bufferView" : 18,
            "componentType" : 5126,
            "count" : 3531,
            "max" : [
                0.2784298360347748,
                0.9487153887748718,
                1.0862253904342651
            ],
            "min" : [
                -0.07740877568721771,
                0.2166227400302887,
                -1.0625097751617432
            ],
            "type" : "VEC3"
        },
        {
            "bufferView" : 19,
            "componentType" : 5126,
            "count" : 3531,
            "type" : "VEC3"
        },
        {
            "bufferView" : 20,
            "componentType" : 5126,
            "count" : 3531,
            "type" : "VEC2"
        },
        {
            "bufferView" : 21,
            "componentType" : 5126,
            "count" : 3531,
            "type" : "VEC2"
        },
        {
            "bufferView" : 22,
            "componentType" : 5123,
            "count" : 3531,
            "normalized" : true,
            "type" : "VEC4"
        },
        {
            "bufferView" : 23,
            "componentType" : 5123,
            "count" : 3531,
            "type" : "SCALAR"
        },
        {
            "bufferView" : 24,
            "componentType" : 5126,
            "count" : 738,
            "max" : [
                0.275719553232193,
                0.8299404382705688,
                0.6748050451278687
            ],
            "min" : [
                -0.0939767137169838,
                0.666236400604248,
                -1.0571746826171875
            ],
            "type" : "VEC3"
        },
        {
            "bufferView" : 25,
            "componentType" : 5126,
            "count" : 738,
            "type" : "VEC3"
        },
        {
            "bufferView" : 26,
            "componentType" : 5126,
            "count" : 738,
            "type" : "VEC2"
        },
        {
            "bufferView" : 27,
            "componentType" : 5126,
            "count" : 738,
            "type" : "VEC2"
        },
        {
            "bufferView" : 28,
            "componentType" : 5123,
            "count" : 738,
            "normalized" : true,
            "type" : "VEC4"
        },
        {
            "bufferView" : 29,
            "componentType" : 5123,
            "count" : 744,
            "type" : "SCALAR"
        },
        {
            "bufferView" : 30,
            "componentType" : 5126,
            "count" : 276,
            "max" : [
                0.6256162524223328,
                1.285494089126587,
                0.762895941734314
            ],
            "min" : [
                -0.3374982178211212,
                0.903211236000061,
                0.38298138976097107
            ],
            "type" : "VEC3"
        },
        {
            "bufferView" : 31,
            "componentType" : 5126,
            "count" : 276,
            "type" : "VEC3"
        },
        {
            "bufferView" : 32,
            "componentType" : 5126,
            "count" : 276,
            "type" : "VEC2"
        },
        {
            "bufferView" : 33,
            "componentType" : 5126,
            "count" : 276,
            "type" : "VEC2"
        },
        {
            "bufferView" : 34,
            "componentType" : 5123,
            "count" : 276,
            "normalized" : true,
            "type" : "VEC4"
        },
        {
            "bufferView" : 35,
            "componentType" : 5123,
            "count" : 276,
            "type" : "SCALAR"
        },
        {
            "bufferView" : 36,
            "componentType" : 5126,
            "count" : 849,
            "max" : [
                0.2784298360347748,
                1.0195807218551636,
                0.44124647974967957
            ],
            "min" : [
                -0.05911310017108917,
                0.758120596408844,
                -0.11159045249223709
            ],
            "type" : "VEC3"
        },
        {
            "bufferView" : 37,
            "componentType" : 5126,
            "count" : 849,
            "type" : "VEC3"
        },
        {
            "bufferView" : 38,
            "componentType" : 5126,
            "count" : 849,
            "type" : "VEC2"
        },
        {
            "bufferView" : 39,
            "componentType" : 5126,
            "count" : 849,
            "type" : "VEC2"
        },
        {
            "bufferView" : 40,
            "componentType" : 5123,
            "count" : 849,
            "normalized" : true,
            "type" : "VEC4"
        },
        {
            "bufferView" : 41,
            "componentType" : 5123,
            "count" : 849,
            "type" : "SCALAR"
        }
    ],
    "bufferViews" : [
        {
            "buffer" : 0,
            "byteLength" : 136248,
            "byteOffset" : 0
        },
        {
            "buffer" : 0,
            "byteLength" : 136248,
            "byteOffset" : 136248
        },
        {
            "buffer" : 0,
            "byteLength" : 90832,
            "byteOffset" : 272496
        },
        {
            "buffer" : 0,
            "byteLength" : 90832,
            "byteOffset" : 363328
        },
        {
            "buffer" : 0,
            "byteLength" : 90832,
            "byteOffset" : 454160
        },
        {
            "buffer" : 0,
            "byteLength" : 22728,
            "byteOffset" : 544992
        },
        {
            "buffer" : 0,
            "byteLength" : 233700,
            "byteOffset" : 567720
        },
        {
            "buffer" : 0,
            "byteLength" : 233700,
            "byteOffset" : 801420
        },
        {
            "buffer" : 0,
            "byteLength" : 155800,
            "byteOffset" : 1035120
        },
        {
            "buffer" : 0,
            "byteLength" : 155800,
            "byteOffset" : 1190920
        },
        {
            "buffer" : 0,
            "byteLength" : 155800,
            "byteOffset" : 1346720
        },
        {
            "buffer" : 0,
            "byteLength" : 39156,
            "byteOffset" : 1502520
        },
        {
            "buffer" : 0,
            "byteLength" : 43656,
            "byteOffset" : 1541676
        },
        {
            "buffer" : 0,
            "byteLength" : 43656,
            "byteOffset" : 1585332
        },
        {
            "buffer" : 0,
            "byteLength" : 29104,
            "byteOffset" : 1628988
        },
        {
            "buffer" : 0,
            "byteLength" : 29104,
            "byteOffset" : 1658092
        },
        {
            "buffer" : 0,
            "byteLength" : 29104,
            "byteOffset" : 1687196
        },
        {
            "buffer" : 0,
            "byteLength" : 7296,
            "byteOffset" : 1716300
        },
        {
            "buffer" : 0,
            "byteLength" : 42372,
            "byteOffset" : 1723596
        },
        {
            "buffer" : 0,
            "byteLength" : 42372,
            "byteOffset" : 1765968
        },
        {
            "buffer" : 0,
            "byteLength" : 28248,
            "byteOffset" : 1808340
        },
        {
            "buffer" : 0,
            "byteLength" : 28248,
            "byteOffset" : 1836588
        },
        {
            "buffer" : 0,
            "byteLength" : 28248,
            "byteOffset" : 1864836
        },
        {
            "buffer" : 0,
            "byteLength" : 7062,
            "byteOffset" : 1893084
        },
        {
            "buffer" : 0,
            "byteLength" : 8856,
            "byteOffset" : 1900148
        },
        {
            "buffer" : 0,
            "byteLength" : 8856,
            "byteOffset" : 1909004
        },
        {
            "buffer" : 0,
            "byteLength" : 5904,
            "byteOffset" : 1917860
        },
        {
            "buffer" : 0,
            "byteLength" : 5904,
            "byteOffset" : 1923764
        },
        {
            "buffer" : 0,
            "byteLength" : 5904,
            "byteOffset" : 1929668
        },
        {
            "buffer" : 0,
            "byteLength" : 1488,
            "byteOffset" : 1935572
        },
        {
            "buffer" : 0,
            "byteLength" : 3312,
            "byteOffset" : 1937060
        },
        {
            "buffer" : 0,
            "byteLength" : 3312,
            "byteOffset" : 1940372
        },
        {
            "buffer" : 0,
            "byteLength" : 2208,
            "byteOffset" : 1943684
        },
        {
            "buffer" : 0,
            "byteLength" : 2208,
            "byteOffset" : 1945892
        },
        {
            "buffer" : 0,
            "byteLength" : 2208,
            "byteOffset" : 1948100
        },
        {
            "buffer" : 0,
            "byteLength" : 552,
            "byteOffset" : 1950308
        },
        {
            "buffer" : 0,
            "byteLength" : 10188,
            "byteOffset" : 1950860
        },
        {
            "buffer" : 0,
            "byteLength" : 10188,
            "byteOffset" : 1961048
        },
        {
            "buffer" : 0,
            "byteLength" : 6792,
            "byteOffset" : 1971236
        },
        {
            "buffer" : 0,
            "byteLength" : 6792,
            "byteOffset" : 1978028
        },
        {
            "buffer" : 0,
            "byteLength" : 6792,
            "byteOffset" : 1984820
        },
        {
            "buffer" : 0,
            "byteLength" : 1698,
            "byteOffset" : 1991612
        }
    ],
    "buffers" : [
        {
            "byteLength" : 1993312,
            "uri" : "data:application/octet-stream;base64,"
        }
    ]
}
